<svg width="16" height="16" viewBox="0 0 16 16" fill="none" xmlns="http://www.w3.org/2000/svg">
<path d="M1.66667 4.66667C1.20095 6.86449 1.20095 9.13551 1.66667 11.3333C1.72786 11.5565 1.8461 11.7599 2.00974 11.9236C2.17339 12.0872 2.37681 12.2055 2.6 12.2667C6.17563 12.8591 9.82438 12.8591 13.4 12.2667C13.6232 12.2055 13.8266 12.0872 13.9903 11.9236C14.1539 11.7599 14.2721 11.5565 14.3333 11.3333C14.7991 9.13551 14.7991 6.86449 14.3333 4.66667C14.2721 4.44347 14.1539 4.24005 13.9903 4.0764C13.8266 3.91276 13.6232 3.79453 13.4 3.73333C9.82437 3.14097 6.17564 3.14097 2.6 3.73333C2.37681 3.79453 2.17339 3.91276 2.00974 4.0764C1.8461 4.24005 1.72786 4.44347 1.66667 4.66667Z" stroke="white" stroke-width="1.33333" stroke-linecap="round" stroke-linejoin="round"/>
<path d="M6.6665 10L9.99984 8L6.6665 6V10Z" stroke="white" stroke-width="1.33333" stroke-linecap="round" stroke-linejoin="round"/>
</svg>
